<?xml version="1.0" encoding="UTF-8"?>
<svg width="465px" height="195px" viewBox="0 0 465 195" version="1.1" xmlns="http://www.w3.org/2000/svg" xmlns:xlink="http://www.w3.org/1999/xlink">
    <title>Slice</title>
    <g id="Page-1" stroke="none" stroke-width="1" fill="none" fill-rule="evenodd">
        <g id="basic-white-bg-logo" transform="translate(0.000000, -27.000000)">
            <text id="ruby" stroke="#333333" fill="#333333" font-family="MLingWaiMedium-SC, LingWai SC" font-size="50" font-weight="400" letter-spacing="61.128463">
                <tspan x="43" y="203">ロンラン</tspan>
            </text>
            <text id="Long" fill="#333330" font-family="MLingWaiMedium-SC, LingWai SC" font-size="140" font-weight="400" letter-spacing="1.68">
                <tspan x="38.44" y="148">Long</tspan>
            </text>
            <text id="Run" fill="#333333" font-family="MLingWaiMedium-SC, LingWai SC" font-size="140" font-weight="400" letter-spacing="1.68">
                <tspan x="263.23" y="148">Run</tspan>
            </text>
            <g id="yubi" transform="translate(208.000000, 59.000000)" fill="#333333">
                <path d="M40.8814596,29.1580842 C42.7581014,29.1580842 44.1718303,31.2529515 43.4107203,33.6749601 C42.6496103,36.0969687 40.594984,37.5964404 38.7183422,37.5964404 C36.8417003,37.5964404 36.8417003,35.7862097 37.2166087,33.6749601 C37.5915171,31.5637104 39.0048177,29.1580842 40.8814596,29.1580842 Z M35.6825508,21.5896834 C37.9176263,21.5896834 39.6189628,23.8547563 39.2583649,25.9933811 C38.8977671,28.1320059 37.3908415,30.6307792 35.155766,30.6307792 C32.9206905,30.6307792 32.1067367,29.8351304 32.1067367,27.2096138 C32.1067367,25.925701 32.9379989,23.6971406 33.6421726,22.8417443 C34.3779875,21.9479119 34.5404571,21.5896834 35.6825508,21.5896834 Z M28.3817847,15.4240464 C28.6946914,15.3370844 29.2279788,15.4240464 29.5639815,15.4240464 C31.859585,15.4240464 34.3018865,17.6162164 33.7205394,20.2266393 C33.1391922,22.8370622 31.859585,25.0292323 29.5639815,25.0292323 C28.7625061,25.0292323 27.5654427,24.990485 26.9306311,24.5364232 C25.7472013,23.6899512 25.4074236,21.9529931 25.4074236,20.2266393 C25.4074236,17.9624665 26.5568818,15.9312174 28.3817847,15.4240464 Z M10.1880982,6.3890411 C13.4717884,6.3890411 17.5170785,8.47835638 16.6912941,14.1419154 C15.8655098,19.8054743 14.0293373,21.4575342 10.7456471,21.4575342 C9.94830835,21.4575342 8.54811955,21.1941897 7.85330549,20.8439007 C5.68665795,19.75159 4.8,17.2011618 4.8,14.1419154 C4.8,10.1016106 6.90440803,6.3890411 10.1880982,6.3890411 Z M21.5763342,11.0199456 C22.9684909,11.0199456 24.4418004,11.6640561 25.1925598,12.9635525 C25.6751627,13.7988943 26.0296908,15.0930394 25.7174271,16.128287 C24.8711754,18.9338644 23.8404633,20.6374496 21.5763342,20.6374496 C20.4778507,20.6374496 19.2577159,20.8618056 18.5164642,20.0007393 C17.7144891,19.0691342 17.4352413,17.5944224 17.4352413,16.128287 C17.4352413,13.3070279 19.2892717,11.0199456 21.5763342,11.0199456 Z" id="Combined-Shape" transform="translate(24.210383, 21.992741) rotate(-21.000000) translate(-24.210383, -21.992741) "></path>
            </g>
        </g>
    </g>
</svg>